<?xml version="1.0" encoding="utf-8"?>
<!-- Generator: Adobe Illustrator 19.1.0, SVG Export Plug-In . SVG Version: 6.00 Build 0)  -->
<svg version="1.1" xmlns="http://www.w3.org/2000/svg" xmlns:xlink="http://www.w3.org/1999/xlink" x="0px" y="0px"
	 viewBox="0 0 138.6 153.9" style="enable-background:new 0 0 138.6 153.9;" xml:space="preserve">
<style type="text/css">
	.st0{display:none;}
	.st1{display:inline;}
	.st2{opacity:0.6;fill:none;stroke:#FFFFFF;stroke-width:10;stroke-miterlimit:10;}
	.st3{opacity:0.6;fill:#FFFFFF;stroke:#FFFFFF;stroke-width:3;stroke-miterlimit:10;}
</style>
<g id="Layer_1">
	<g class="st0">
		<path class="st1" d="M149,349.3c-2.2,1.1-5.3,1.9-8.6,2.3c0,2.1,0,4.2,0,6.5c4.6-0.5,8.2-1.5,10.2-2.6L149,349.3z"/>
		<path class="st1" d="M136.2,351.8c-14.8,0-23.3-9.5-23.3-24.4c0-15.9,9.4-25,23.7-25c5,0,9.3,1.1,12.2,2.5l0.8-2.7
			c-1.2-0.3-2.4-0.8-3.5-1.4c0,0,0,0,0,0c-0.9-0.3-1.6-0.8-2.2-1.4c-0.6-0.3-1.2-0.6-1.8-1c-0.3-0.2-0.6-0.5-0.9-0.7c0,0,0,0,0,0
			c-0.9,0-1.8-0.2-2.6-0.6c-0.5,0-1-0.1-1.5-0.3c-0.7,0.1-1.5,0.1-2.1-0.1c-0.6-0.2-1.1-0.4-1.7-0.6c0,0-0.1,0-0.1,0
			c-0.3,0-0.5,0-0.8-0.1c-0.3,0-0.5,0.1-0.8,0.1c-0.1,0-0.1,0-0.2,0c0,0-0.1,0-0.1,0c-0.1,0-0.1,0-0.2,0
			c-15.9,2.2-26.3,14.3-26.3,31.5c0,19.9,12.9,30.7,30,30.7c2.1,0,4-0.1,5.8-0.3c0-2.3,0-4.4,0-6.5
			C139,351.8,137.6,351.8,136.2,351.8z"/>
	</g>
	<g id="Layer_3">
	</g>
	<polygon class="st2" points="126.6,110.6 66.7,145.2 6.8,110.7 6.7,41.5 66.6,6.9 126.5,41.5 	"/>
</g>
<g id="Layer_6">
	<path class="st3" d="M106.7,62l-5.4,17.7C100,83.9,99,88,98.4,91h-0.2c-0.9-3-2-7.2-3.4-11.4L88.9,62h-5.8L76.9,80
		c-1.3,3.8-2.5,8.1-3.4,11.1h-0.2c-0.7-4-1.7-7.2-2.8-11.1l-5-17.9h0c0-1,0,0,0,0l0,0h0c-3.8-8-11.1-13.4-20.8-13.4
		c-14.1,0-25.5,9.6-25.5,25.3c0,13.5,6.7,22.4,18.7,24.1v0c2,0.3,4.7,0.4,6.6,0.4c6.4,0,11.9-1.2,14.4-2.3l-1.2-4.9
		c-2.7,1.2-7.9,2-12,2c-2.6,0-5.9-0.3-7.9-0.9v0C29.9,90.1,26.5,82,26.5,73c0-10.9,6.1-20.6,17.4-20.6c6.1,0,10.8,3,13.6,7.4
		l2.5,6.2L69.8,98h6.3l6.1-17.6c1.3-3.8,2.5-7.4,3.4-12.4h0.2c0.9,5,2,8.4,3.4,12.4L95,98h6.3l12.2-36H106.7z"/>
</g>
<g id="Layer_7">
</g>
<g id="Layer_4">
</g>
<g id="Layer_5">
</g>
<g id="Layer_2" class="st0">
	<g class="st1">
		<path d="M158.2,325.3c0-3.6-0.5-7.1-0.8-10.7c-0.1-0.8,0.1-1.6,0.5-2.3c-4.3-9.9-13.4-15.4-24.6-16.1c-0.1,0-0.2,0-0.3,0
			c-0.3,0-0.5,0-0.8-0.1c-0.3,0-0.5,0.1-0.8,0.1c0,0,0,0-0.1,0c-0.4,2.2-1.9,4.1-4.7,4.1c-0.6,0-1.1-0.1-1.5-0.2
			c-0.1,0.1-0.3,0.2-0.4,0.3c-0.1,0-0.1,0.1-0.2,0.1c-0.1,0.1-0.2,0.2-0.3,0.3c-1.1,0.8-2.5,1-3.9,1.2c-0.2,0-0.3,0.1-0.5,0.1
			c-0.3,0.1-0.5,0.2-0.8,0.2c0,0,0,0,0,0c0,0,0.1,0,0.1,0c0,0-0.1,0-0.1,0c0,0,0,0,0,0c-0.1,0.1-0.1,0.1-0.2,0.2
			c-0.7,0.9-1.6,1.5-2.6,1.8l0.2,0.9c3.1-1.5,8-2.5,12.8-2.5c10.8,0,18.3,5.2,21.5,13.8c1.4,0.9,2.3,2.5,2.3,4.2c0,0.1,0,0.3,0,0.4
			c0,0.1,0.1,0.2,0.1,0.2c0.8,0.6,1.4,1.3,1.7,2.4c1.3,1.1,2.5,2.2,3.6,3.5c0.1,0,0.2,0,0.3,0C158.4,326.7,158.2,326.1,158.2,325.3z
			"/>
	</g>
</g>
</svg>
