<svg xmlns="http://www.w3.org/2000/svg" viewBox="0 0 138.6 153.9"><style>.st0{display:none;} .st1{display:inline;} .st2{opacity:0.6;fill:none;stroke:#FFFFFF;stroke-width:10;stroke-miterlimit:10;} .st3{opacity:0.6;fill:#FFFFFF;stroke:#FFFFFF;stroke-width:3;stroke-miterlimit:10;}</style><g id="Layer_1"><g class="st0"><path class="st1" d="M149 349.3c-2.2 1.1-5.3 1.9-8.6 2.3v6.5c4.6-.5 8.2-1.5 10.2-2.6l-1.6-6.2z"/><path class="st1" d="M136.2 351.8c-14.8 0-23.3-9.5-23.3-24.4 0-15.9 9.4-25 23.7-25 5 0 9.3 1.1 12.2 2.5l.8-2.7c-1.2-.3-2.4-.8-3.5-1.4-.9-.3-1.6-.8-2.2-1.4-.6-.3-1.2-.6-1.8-1-.3-.2-.6-.5-.9-.7-.9 0-1.8-.2-2.6-.6-.5 0-1-.1-1.5-.3-.7.1-1.5.1-2.1-.1-.6-.2-1.1-.4-1.7-.6h-.1c-.3 0-.5 0-.8-.1-.3 0-.5.1-.8.1h-.2H131.1c-15.9 2.2-26.3 14.3-26.3 31.5 0 19.9 12.9 30.7 30 30.7 2.1 0 4-.1 5.8-.3v-6.5c-1.6.3-3 .3-4.4.3z"/></g><path class="st2" d="M126.6 110.6l-59.9 34.6-59.9-34.5-.1-69.2L66.6 6.9l59.9 34.6z"/></g><path class="st3" d="M106.7 62l-5.4 17.7C100 83.9 99 88 98.4 91h-.2c-.9-3-2-7.2-3.4-11.4L88.9 62h-5.8l-6.2 18c-1.3 3.8-2.5 8.1-3.4 11.1h-.2c-.7-4-1.7-7.2-2.8-11.1l-5-17.9c0-1 0 0 0 0-3.8-8-11.1-13.4-20.8-13.4-14.1 0-25.5 9.6-25.5 25.3 0 13.5 6.7 22.4 18.7 24.1 2 .3 4.7.4 6.6.4 6.4 0 11.9-1.2 14.4-2.3l-1.2-4.9c-2.7 1.2-7.9 2-12 2-2.6 0-5.9-.3-7.9-.9C29.9 90.1 26.5 82 26.5 73c0-10.9 6.1-20.6 17.4-20.6 6.1 0 10.8 3 13.6 7.4L60 66l9.8 32h6.3l6.1-17.6c1.3-3.8 2.5-7.4 3.4-12.4h.2c.9 5 2 8.4 3.4 12.4L95 98h6.3l12.2-36h-6.8z" id="Layer_6"/><path d="M158.2 325.3c0-3.6-.5-7.1-.8-10.7-.1-.8.1-1.6.5-2.3-4.3-9.9-13.4-15.4-24.6-16.1h-.3c-.3 0-.5 0-.8-.1-.3 0-.5.1-.8.1h-.1c-.4 2.2-1.9 4.1-4.7 4.1-.6 0-1.1-.1-1.5-.2-.1.1-.3.2-.4.3-.1 0-.1.1-.2.1l-.3.3c-1.1.8-2.5 1-3.9 1.2-.2 0-.3.1-.5.1-.3.1-.5.2-.8.2h0l-.2.2c-.7.9-1.6 1.5-2.6 1.8l.2.9c3.1-1.5 8-2.5 12.8-2.5 10.8 0 18.3 5.2 21.5 13.8 1.4.9 2.3 2.5 2.3 4.2v.4c0 .1.1.2.1.2.8.6 1.4 1.3 1.7 2.4 1.3 1.1 2.5 2.2 3.6 3.5h.3c-.3-.5-.5-1.1-.5-1.9z" class="st0 st1" id="Layer_2"/></svg>